<svg width="35" height="35" viewBox="0 0 35 35" fill="none" xmlns="http://www.w3.org/2000/svg">
<path d="M17.4979 0L0 17.4979L17.4979 34.9958L34.9958 17.4979L17.4979 0ZM3.57032 17.4979L17.4979 3.57032L31.4255 17.4979L17.4979 31.4255L3.57032 17.4979Z" fill="white"/>
<path d="M17.498 6.96167C13.4283 6.96167 9.72485 11.9843 9.72485 17.4979C9.72485 23.0115 13.4283 28.0341 17.498 28.0341C21.5677 28.0341 25.2712 23.0115 25.2712 17.4979C25.2712 11.9843 21.5677 6.96167 17.498 6.96167ZM12.2549 17.4979C12.2549 15.076 13.1911 12.6833 14.5103 11.152C14.3854 11.7055 14.3188 12.2755 14.3188 12.8581C14.3188 14.947 15.1344 16.9111 16.6075 18.3884C18.5383 20.3192 18.6631 23.3777 16.9862 25.4541C14.5227 24.9922 12.2549 21.2804 12.2549 17.4979ZM20.4816 23.8521C21.0475 21.322 20.3568 18.5673 18.3927 16.6032C16.4619 14.6724 16.337 11.6139 18.014 9.53746C20.4733 10.0035 22.7453 13.7153 22.7453 17.4979C22.7453 19.928 21.8049 22.3249 20.4816 23.8521Z" fill="white"/>
</svg>
